<?xml version="1.0" encoding="UTF-8" standalone="no"?>
<!-- Created with Inkscape (http://www.inkscape.org/) -->

<svg
   width="111.71177mm"
   height="101.26035mm"
   viewBox="0 0 111.71177 101.26035"
   version="1.1"
   id="svg1"
   xml:space="preserve"
   inkscape:version="1.4.3 (0d15f75, 2025-12-25)"
   sodipodi:docname="numbiosis.svg"
   xmlns:inkscape="http://www.inkscape.org/namespaces/inkscape"
   xmlns:sodipodi="http://sodipodi.sourceforge.net/DTD/sodipodi-0.dtd"
   xmlns:xlink="http://www.w3.org/1999/xlink"
   xmlns="http://www.w3.org/2000/svg"
   xmlns:svg="http://www.w3.org/2000/svg"><sodipodi:namedview
     id="namedview1"
     pagecolor="#ffffff"
     bordercolor="#666666"
     borderopacity="1.0"
     inkscape:showpageshadow="2"
     inkscape:pageopacity="0.0"
     inkscape:pagecheckerboard="0"
     inkscape:deskcolor="#d1d1d1"
     inkscape:document-units="mm"
     inkscape:zoom="0.2467518"
     inkscape:cx="174.26418"
     inkscape:cy="443.76577"
     inkscape:window-width="1545"
     inkscape:window-height="750"
     inkscape:window-x="0"
     inkscape:window-y="30"
     inkscape:window-maximized="0"
     inkscape:current-layer="layer1" /><defs
     id="defs1"><linearGradient
       id="linearGradient6"
       inkscape:collect="always"><stop
         style="stop-color:#60a47b;stop-opacity:1;"
         offset="0"
         id="stop6" /><stop
         style="stop-color:#60a3a6;stop-opacity:1;"
         offset="0.81650245"
         id="stop7" /></linearGradient><linearGradient
       inkscape:collect="always"
       xlink:href="#linearGradient6"
       id="linearGradient7"
       x1="46.985245"
       y1="210.84952"
       x2="143.73047"
       y2="266.70541"
       gradientUnits="userSpaceOnUse"
       gradientTransform="translate(-5.3924456,-75.044867)" /></defs><g
     inkscape:label="Layer 1"
     inkscape:groupmode="layer"
     id="layer1"
     transform="translate(-34.109531,-113.10243)"><path
       style="fill:#000000"
       id="path1"
       d="" /><path
       id="path3"
       style="fill:url(#linearGradient7);stroke:none;stroke-width:0.264583px;stroke-linecap:butt;stroke-linejoin:miter;stroke-opacity:1"
       d="m 132.19088,113.10644 c -20.55049,-0.54661 -21.30024,54.91191 -35.600916,51.3271 -15.512628,-3.88861 -1.66628,-47.72633 -23.276103,-47.51183 -21.609826,0.2145 -53.225278,77.0088 -32.394405,80.7005 20.830873,3.6917 20.370726,-31.09905 33.83411,-29.58941 13.463384,1.50964 -3.491493,47.37122 23.035808,46.3119 26.527276,-1.05932 64.761806,-88.71287 40.072996,-99.82233 -2.04627,-0.92078 -3.92992,-1.36961 -5.67149,-1.41593 z m 0.88109,16.23673 c 0.5256,0.0128 1.07836,0.4367 1.59887,1.36012 1.75326,3.11041 -4.29013,9.16463 -4.08193,4.30413 0.14642,-3.41754 1.23821,-5.69461 2.48306,-5.66425 z m -6.02806,17.05529 c 2.33165,0.0631 3.92837,5.74589 0.67179,9.48314 -4.63159,5.31522 -6.8624,2.58955 -3.7083,-5.98826 0.93637,-2.54654 2.05203,-3.52152 3.03651,-3.49488 z m -8.90282,19.73988 c 0.49523,-0.012 0.97329,0.14698 1.41801,0.51418 4.7436,3.91688 2.20526,11.16557 -5.54954,13.52837 -7.02778,2.14129 -0.65563,-13.92632 4.13153,-14.04255 z m -12.31087,20.78064 c 1.29073,0.0171 2.17039,0.73572 2.30063,2.44482 0.69462,9.11519 -6.89082,16.58628 -14.792888,13.26895 -6.420426,-2.69531 6.899078,-15.78793 12.492258,-15.71377 z" /></g></svg>
