<?xml version="1.0" encoding="UTF-8" standalone="no"?>
<!-- Created with Inkscape (http://www.inkscape.org/) -->

<svg
   width="59.999996mm"
   height="50.873028mm"
   viewBox="0 0 59.999996 50.873028"
   version="1.1"
   id="svg1"
   xml:space="preserve"
   inkscape:version="1.4.3 (0d15f75, 2025-12-25)"
   sodipodi:docname="numbiosis.svg"
   xmlns:inkscape="http://www.inkscape.org/namespaces/inkscape"
   xmlns:sodipodi="http://sodipodi.sourceforge.net/DTD/sodipodi-0.dtd"
   xmlns:xlink="http://www.w3.org/1999/xlink"
   xmlns="http://www.w3.org/2000/svg"
   xmlns:svg="http://www.w3.org/2000/svg"><sodipodi:namedview
     id="namedview1"
     pagecolor="#ffffff"
     bordercolor="#666666"
     borderopacity="1.0"
     inkscape:showpageshadow="2"
     inkscape:pageopacity="0.0"
     inkscape:pagecheckerboard="0"
     inkscape:deskcolor="#d1d1d1"
     inkscape:document-units="mm"
     inkscape:zoom="0.14920001"
     inkscape:cx="321.71579"
     inkscape:cy="814.34309"
     inkscape:window-width="1240"
     inkscape:window-height="640"
     inkscape:window-x="0"
     inkscape:window-y="30"
     inkscape:window-maximized="0"
     inkscape:current-layer="layer1" /><defs
     id="defs1"><linearGradient
       id="linearGradient5"
       inkscape:collect="always"><stop
         style="stop-color:#60a47b;stop-opacity:1;"
         offset="0"
         id="stop5" /><stop
         style="stop-color:#4a8998;stop-opacity:1;"
         offset="1"
         id="stop6" /></linearGradient><linearGradient
       inkscape:collect="always"
       xlink:href="#linearGradient5"
       id="linearGradient6"
       x1="70.851654"
       y1="-308.16058"
       x2="193.90924"
       y2="-185.10301"
       gradientUnits="userSpaceOnUse"
       gradientTransform="matrix(0.34627698,0,0,0.34627698,29.743055,-209.17135)" /></defs><g
     inkscape:label="Layer 1"
     inkscape:groupmode="layer"
     id="layer1"
     transform="translate(-45.497946,319.96938)"><path
       id="path2"
       style="fill:url(#linearGradient6);stroke:none;stroke-width:0.091619px;stroke-linecap:butt;stroke-linejoin:miter;stroke-opacity:1"
       d="m 100.05285,-319.96714 c -9.093894,0.26237 -6.313629,25.85009 -16.530805,25.27096 -10.379352,-0.58833 -3.795573,-22.67692 -15.632332,-22.14016 -11.836757,0.53677 -30.873762,39.47754 -18.211627,43.241 12.662136,3.76347 9.223459,-18.62709 19.258627,-18.21502 14.194801,0.58288 2.505203,20.1565 16.019566,22.63099 13.514363,2.4745 28.976451,-51.19064 15.096571,-50.78775 z m -1.705507,10.66397 c 0.277652,-0.009 0.526113,0.13365 0.690722,0.396 0.342873,0.54621 0.235919,1.45295 -0.238889,2.02528 -0.474864,0.57232 -1.137759,0.59339 -1.48058,0.0471 -0.342814,-0.54628 -0.235777,-1.45302 0.23907,-2.02529 0.227995,-0.2748 0.512046,-0.43418 0.789677,-0.44306 z m -1.615683,7.05038 c 0.41905,-0.0134 0.794061,0.20157 1.042526,0.59749 0.517421,0.82439 0.355907,2.19288 -0.360748,3.05654 -0.716648,0.86377 -1.717105,0.89557 -2.23447,0.071 -0.517359,-0.82447 -0.355762,-2.19295 0.360928,-3.05654 0.344099,-0.41469 0.772783,-0.65517 1.191764,-0.66853 z m -2.472819,8.11079 c 0.686449,0.0125 1.232711,0.42948 1.478072,1.12824 0.435939,1.24139 -0.185691,2.99733 -1.388421,3.92191 -1.2027,0.92459 -2.531036,0.66774 -2.966884,-0.57369 -0.435838,-1.24138 0.185774,-2.99717 1.388422,-3.92173 0.479382,-0.36857 1.00271,-0.56356 1.488811,-0.55473 z m -5.953811,9.46934 c 1.046716,0.019 1.879668,0.65486 2.253792,1.72036 0.664676,1.8928 -0.283095,4.57011 -2.116902,5.97994 -1.833844,1.4098 -3.85926,1.0182 -4.523873,-0.87467 -0.664672,-1.8928 0.283095,-4.57011 2.116902,-5.97994 0.73096,-0.56193 1.528907,-0.85919 2.270081,-0.84569 z"
       sodipodi:nodetypes="csszszccscsscsccccscscsccsccccsc" /></g></svg>
